<?xml version="1.0" encoding="UTF-8" standalone="no"?>
<svg
   xmlns:dc="http://purl.org/dc/elements/1.1/"
   xmlns:cc="http://creativecommons.org/ns#"
   xmlns:rdf="http://www.w3.org/1999/02/22-rdf-syntax-ns#"
   xmlns:svg="http://www.w3.org/2000/svg"
   xmlns="http://www.w3.org/2000/svg"
   height="30"
   width="148"
   id="Layer_1"
   data-name="Layer 1"
   viewBox="0 0 148 30"
   version="1.1">
  <g
     transform="translate(-31.526965,1.4600001e-4)"
     id="g4162">
    <path
       style="fill:#ffffff;fill-opacity:1;fill-rule:nonzero;stroke:none"
       d="m 130.01139,25.881851 2.68708,0 c 0.57363,0 1.07576,-0.476476 1.22033,-0.999589 l 6.97459,-20.764405 -3.05784,0 c -0.356,0 -0.66692,0.3373419 -0.7563,0.66147 l -7.06786,21.102524 z"
       id="path4160" />
    <path
       style="fill:#ffffff;fill-opacity:1;fill-rule:nonzero;stroke:none"
       d="M 163.36107,7.3924848 C 163.28723,7.2891058 163.16675,7.226923 163.0385,7.226923 l -1.18225,0 c -0.10727,0 -0.2021,0.069956 -0.23008,0.1702255 l -3.54209,12.5313965 c -0.0241,0.08239 -0.11504,0.04819 -0.12825,-0.0016 L 154.72698,7.5199596 c -0.0474,-0.1725574 -0.2052,-0.2930366 -0.3832,-0.2930366 l -1.38357,0 c -0.10804,0 -0.20287,0.069956 -0.23085,0.1702255 l -3.56075,12.5920255 c -0.006,0.02099 -0.0225,0.05752 -0.0637,0.05752 -0.0428,-7.78e-4 -0.0591,-0.03809 -0.0645,-0.06063 L 145.85116,7.5230688 C 145.8053,7.3489568 145.64751,7.226923 145.46718,7.226923 l -1.06877,0 c -0.12825,0 -0.24484,0.059074 -0.31946,0.1632299 -0.0715,0.097938 -0.094,0.2199718 -0.063,0.3357874 l 4.05199,14.8741357 c 0.028,0.102601 0.12436,0.174112 0.23474,0.172557 l 1.50405,-0.02099 c 0.10493,-0.0016 0.19743,-0.06996 0.22619,-0.168671 l 3.56385,-12.16685 c 0.006,-0.02254 0.0233,-0.05752 0.0653,-0.05752 0.042,0 0.0575,0.0412 0.063,0.05907 l 3.28248,12.160632 c 0.0272,0.101824 0.12281,0.172557 0.23163,0.172557 l 1.38901,0 c 0.17722,0 0.32957,-0.114261 0.37854,-0.281377 l 4.41109,-14.7350016 c 0.035,-0.1173701 0.0148,-0.2417358 -0.0567,-0.3420056"
       id="path4158" />
    <path
       style="fill:#ffffff;fill-opacity:1;fill-rule:nonzero;stroke:none"
       d="m 116.75657,7.6505455 -4.09085,6.7530565 c -0.22231,0.366879 -0.22231,0.826254 0,1.193133 l 4.09085,6.752279 c 0.11271,0.185772 -0.021,0.423621 -0.23785,0.423621 l -3.22107,0 c -7.8e-4,0 7.8e-4,-7.77e-4 0,-0.0016 l -2.58758,-4.355908 c -0.20987,0.0031 -0.26195,0.0039 -0.47182,0.0062 l -2.33885,4.211333 c -0.0482,0.08628 -0.13913,0.139911 -0.23785,0.139911 l -3.01587,0 c -0.22152,0 -0.35832,-0.24329 -0.24251,-0.433725 l 4.10251,-6.739843 c 0.22386,-0.367656 0.22386,-0.830141 0,-1.19702 l -4.10251,-6.7413968 c -0.11581,-0.1896577 0.021,-0.4337253 0.24251,-0.4337253 l 2.98944,0 c 0.0956,0 0.18422,0.051301 0.23397,0.1336931 l 2.57359,4.341917 c 0.10727,0.18033 0.36999,0.176444 0.47181,-0.007 l 2.40181,-4.3287027 c 0.0482,-0.086279 0.13914,-0.1399114 0.23785,-0.1399114 l 2.96457,0 c 0.21686,0 0.35056,0.2378494 0.23785,0.4236206"
       id="path4156" />
    <path
       style="fill:#ffffff;fill-opacity:1;fill-rule:nonzero;stroke:none"
       d="m 88.037969,7.4600316 0,8.9893064 c 0,0.230077 -0.2977,0.321797 -0.42673,0.130584 L 81.888863,7.3294476 C 81.845335,7.2657102 81.773048,7.2268459 81.696097,7.2268459 l -2.752368,0 c -0.12903,0 -0.233186,0.1049336 -0.233186,0.2331857 l 0,15.0793384 c 0,0.128252 0.104156,0.233186 0.233186,0.233186 l 2.64277,0 c 0.12903,0 0.233186,-0.104934 0.233186,-0.233186 l 0,-9.023507 c 0,-0.230077 0.298478,-0.321019 0.42673,-0.129807 l 5.722376,9.283121 c 0.04353,0.06452 0.115815,0.103379 0.193544,0.103379 l 2.75159,0 c 0.12903,0 0.233186,-0.104934 0.233186,-0.233186 l 0,-12.203382 0,-2.8759564 c 0,-0.1282521 -0.104156,-0.2331857 -0.233186,-0.2331857 l -2.64277,0 c -0.12903,0 -0.233186,0.1049336 -0.233186,0.2331857"
       id="path4154" />
    <path
       style="fill:#ffffff;fill-opacity:1;fill-rule:nonzero;stroke:none"
       d="m 173.53937,8.5022179 0,-1.0423399 c 0,-0.1290293 -0.10338,-0.2331856 -0.23163,-0.2331856 l -8.08688,0 c -0.12825,0 -0.23163,0.1041563 -0.23163,0.2331856 l 0,15.080116 c 0,0.129029 0.10338,0.232408 0.23163,0.232408 l 8.08688,0 c 0.12825,0 0.23163,-0.103379 0.23163,-0.232408 l 0,-1.04234 c 0,-0.129029 -0.10338,-0.233185 -0.23163,-0.233185 l -6.57428,0 c -0.12825,0 -0.23163,-0.104157 -0.23163,-0.233186 l 0,-5.043806 c 0,-0.129029 0.10338,-0.233185 0.23163,-0.233185 l 4.81528,0 c 0.12748,0 0.23086,-0.104157 0.23086,-0.233186 l 0,-1.04234 c 0,-0.129029 -0.10338,-0.232408 -0.23086,-0.232408 l -4.81528,0 c -0.12825,0 -0.23163,-0.104157 -0.23163,-0.233186 l 0,-5.0445828 c 0,-0.1290294 0.10338,-0.2331857 0.23163,-0.2331857 l 6.57428,0 c 0.12825,0 0.23163,-0.1041562 0.23163,-0.2331856"
       id="path4152" />
    <path
       style="fill:#ffffff;fill-opacity:1;fill-rule:nonzero;stroke:none"
       d="m 102.80637,10.103113 0,-2.6427707 c 0,-0.1282521 -0.10416,-0.2331856 -0.23319,-0.2331856 l -5.985094,0 -2.875956,0 c -0.12903,0 -0.233186,0.1049335 -0.233186,0.2331856 l 0,15.3125247 9.094236,0 c 0.12903,0 0.23319,-0.104934 0.23319,-0.233186 l 0,-2.642771 c 0,-0.128252 -0.10416,-0.233185 -0.23319,-0.233185 l -5.751908,0 c -0.12903,0 -0.233186,-0.104934 -0.233186,-0.233186 l 0,-2.642771 c 0,-0.128252 0.104156,-0.233185 0.233186,-0.233185 l 4.197338,0 c 0.12903,0 0.23319,-0.104934 0.23319,-0.233186 l 0,-2.642771 c 0,-0.128252 -0.10416,-0.233185 -0.23319,-0.233185 l -4.197338,0 c -0.12903,0 -0.233186,-0.104934 -0.233186,-0.233186 l 0,-2.642771 c 0,-0.128252 0.104156,-0.233185 0.233186,-0.233185 l 5.751908,0 c 0.12903,0 0.23319,-0.104934 0.23319,-0.233186"
       id="path4150" />
    <path
       style="fill:#ffffff;fill-opacity:1;fill-rule:nonzero;stroke:none"
       d="m 72.492248,10.103113 0,-2.6427707 c 0,-0.1282521 -0.104156,-0.2331856 -0.233186,-0.2331856 l -5.985098,0 -2.875956,0 c -0.12903,0 -0.233186,0.1049335 -0.233186,0.2331856 l 0,15.3125247 9.09424,0 c 0.12903,0 0.233186,-0.104934 0.233186,-0.233186 l 0,-2.642771 c 0,-0.128252 -0.104156,-0.233185 -0.233186,-0.233185 l -5.751912,0 c -0.12903,0 -0.233186,-0.104934 -0.233186,-0.233186 l 0,-2.642771 c 0,-0.128252 0.104156,-0.233185 0.233186,-0.233185 l 4.197341,0 c 0.12903,0 0.233186,-0.104934 0.233186,-0.233186 l 0,-2.642771 c 0,-0.128252 -0.104156,-0.233185 -0.233186,-0.233185 l -4.197341,0 c -0.12903,0 -0.233186,-0.104934 -0.233186,-0.233186 l 0,-2.642771 c 0,-0.128252 0.104156,-0.233185 0.233186,-0.233185 l 5.751912,0 c 0.12903,0 0.233186,-0.104934 0.233186,-0.233186"
       id="path4148" />
    <path
       style="fill:#ffffff;fill-opacity:1;fill-rule:nonzero;stroke:none"
       d="m 57.723828,7.4600316 0,5.7519124 c 0,0.128252 -0.104156,0.233186 -0.233186,0.233186 l -4.197341,0 c -0.12903,0 -0.233186,-0.104934 -0.233186,-0.233186 l 0,-5.7519124 c 0,-0.1282521 -0.104156,-0.2331857 -0.233186,-0.2331857 l -2.64277,0 c -0.12903,0 -0.233186,0.1049336 -0.233186,0.2331857 l 0,15.0793384 c 0,0.128252 0.104156,0.233186 0.233186,0.233186 l 2.64277,0 c 0.12903,0 0.233186,-0.104934 0.233186,-0.233186 l 0,-5.751912 c 0,-0.128253 0.104156,-0.233186 0.233186,-0.233186 l 4.197341,0 c 0.12903,0 0.233186,0.104933 0.233186,0.233186 l 0,5.751912 c 0,0.128252 0.104156,0.233186 0.233186,0.233186 l 2.64277,0 c 0.12903,0 0.233186,-0.104934 0.233186,-0.233186 l 0,-15.0793384 c 0,-0.1282521 -0.104156,-0.2331857 -0.233186,-0.2331857 l -2.64277,0 c -0.12903,0 -0.233186,0.1049336 -0.233186,0.2331857"
       id="path4146" />
    <path
       style="fill:#ffffff;fill-opacity:1;fill-rule:nonzero;stroke:none"
       d="m 128.22375,7.2270002 -10.41563,0 c -0.12903,0 -0.23318,0.1049335 -0.23318,0.2331856 l 0,2.6427712 c 0,0.128252 0.10415,0.233185 0.23318,0.233185 l 3.42006,0 c 0.12903,0 0.23319,0.104934 0.23319,0.233186 l 0,11.970197 c 0,0.128252 0.10415,0.233185 0.23318,0.233185 l 2.64277,0 c 0.12903,0 0.23319,-0.104933 0.23319,-0.233185 l 0,-11.970197 c 0,-0.128252 0.10415,-0.233186 0.23318,-0.233186 l 3.42006,0 c 0.12903,0 0.23319,-0.104933 0.23319,-0.233185 l 0,-2.6427712 c 0,-0.1282521 -0.10416,-0.2331856 -0.23319,-0.2331856"
       id="path4144" />
    <path
       style="fill:#ffffff;fill-opacity:1;fill-rule:nonzero;stroke:none"
       d="m 48.163371,7.2270002 -10.415626,0 c -0.129029,0 -0.233185,0.1049335 -0.233185,0.2331856 l 0,2.6427712 c 0,0.128252 0.104156,0.233185 0.233185,0.233185 l 3.420056,0 c 0.12903,0 0.233186,0.104934 0.233186,0.233186 l 0,11.970197 c 0,0.128252 0.104156,0.233185 0.233186,0.233185 l 2.642771,0 c 0.129029,0 0.233185,-0.104933 0.233185,-0.233185 l 0,-11.970197 c 0,-0.128252 0.104156,-0.233186 0.233186,-0.233186 l 3.420056,0 c 0.129029,0 0.233186,-0.104933 0.233186,-0.233185 l 0,-2.6427712 c 0,-0.1282521 -0.104157,-0.2331856 -0.233186,-0.2331856"
       id="path4142" />
  </g>
</svg>
